<svg width="225" height="40" viewBox="0 0 225 40" fill="none" xmlns="http://www.w3.org/2000/svg">
<path d="M26.216 5.304V11.88H17.288V39H9.08V11.88H0.152V5.304H26.216ZM55.5834 25.176C55.5834 25.944 55.5354 26.744 55.4394 27.576H36.8634C36.9914 29.24 37.5194 30.52 38.4474 31.416C39.4074 32.28 40.5754 32.712 41.9514 32.712C43.9994 32.712 45.4234 31.848 46.2234 30.12H54.9594C54.5114 31.88 53.6954 33.464 52.5114 34.872C51.3594 36.28 49.9034 37.384 48.1434 38.184C46.3834 38.984 44.4154 39.384 42.2394 39.384C39.6154 39.384 37.2794 38.824 35.2314 37.704C33.1834 36.584 31.5834 34.984 30.4314 32.904C29.2794 30.824 28.7034 28.392 28.7034 25.608C28.7034 22.824 29.2634 20.392 30.3834 18.312C31.5354 16.232 33.1354 14.632 35.1834 13.512C37.2314 12.392 39.5834 11.832 42.2394 11.832C44.8314 11.832 47.1354 12.376 49.1514 13.464C51.1674 14.552 52.7354 16.104 53.8554 18.12C55.0074 20.136 55.5834 22.488 55.5834 25.176ZM47.1834 23.016C47.1834 21.608 46.7034 20.488 45.7434 19.656C44.7834 18.824 43.5834 18.408 42.1434 18.408C40.7674 18.408 39.5994 18.808 38.6394 19.608C37.7114 20.408 37.1354 21.544 36.9114 23.016H47.1834ZM68.1215 3.48V39H59.9135V3.48H68.1215ZM99.3177 25.176C99.3177 25.944 99.2698 26.744 99.1738 27.576H80.5978C80.7258 29.24 81.2538 30.52 82.1818 31.416C83.1418 32.28 84.3098 32.712 85.6858 32.712C87.7338 32.712 89.1578 31.848 89.9578 30.12H98.6938C98.2458 31.88 97.4298 33.464 96.2458 34.872C95.0938 36.28 93.6378 37.384 91.8778 38.184C90.1178 38.984 88.1498 39.384 85.9738 39.384C83.3498 39.384 81.0138 38.824 78.9658 37.704C76.9178 36.584 75.3178 34.984 74.1658 32.904C73.0138 30.824 72.4378 28.392 72.4378 25.608C72.4378 22.824 72.9978 20.392 74.1178 18.312C75.2698 16.232 76.8698 14.632 78.9178 13.512C80.9658 12.392 83.3178 11.832 85.9738 11.832C88.5658 11.832 90.8698 12.376 92.8858 13.464C94.9018 14.552 96.4698 16.104 97.5898 18.12C98.7418 20.136 99.3177 22.488 99.3177 25.176ZM90.9178 23.016C90.9178 21.608 90.4378 20.488 89.4778 19.656C88.5178 18.824 87.3178 18.408 85.8778 18.408C84.5018 18.408 83.3338 18.808 82.3738 19.608C81.4458 20.408 80.8698 21.544 80.6458 23.016H90.9178ZM117.088 19.032H112.672V39H104.464V19.032H101.488V12.216H104.464V11.448C104.464 8.152 105.408 5.656 107.296 3.96C109.184 2.232 111.952 1.368 115.6 1.368C116.208 1.368 116.656 1.384 116.944 1.416V8.376C115.376 8.28 114.272 8.504 113.632 9.048C112.992 9.592 112.672 10.568 112.672 11.976V12.216H117.088V19.032ZM133.137 39.384C130.513 39.384 128.145 38.824 126.033 37.704C123.953 36.584 122.305 34.984 121.089 32.904C119.905 30.824 119.313 28.392 119.313 25.608C119.313 22.856 119.921 20.44 121.137 18.36C122.353 16.248 124.017 14.632 126.129 13.512C128.241 12.392 130.609 11.832 133.233 11.832C135.857 11.832 138.225 12.392 140.337 13.512C142.449 14.632 144.113 16.248 145.329 18.36C146.545 20.44 147.153 22.856 147.153 25.608C147.153 28.36 146.529 30.792 145.281 32.904C144.065 34.984 142.385 36.584 140.241 37.704C138.129 38.824 135.761 39.384 133.137 39.384ZM133.137 32.28C134.705 32.28 136.033 31.704 137.121 30.552C138.241 29.4 138.801 27.752 138.801 25.608C138.801 23.464 138.257 21.816 137.169 20.664C136.113 19.512 134.801 18.936 133.233 18.936C131.633 18.936 130.305 19.512 129.249 20.664C128.193 21.784 127.665 23.432 127.665 25.608C127.665 27.752 128.177 29.4 129.201 30.552C130.257 31.704 131.569 32.28 133.137 32.28ZM167.827 11.928C170.963 11.928 173.459 12.952 175.315 15C177.203 17.016 178.147 19.8 178.147 23.352V39H169.987V24.456C169.987 22.664 169.523 21.272 168.595 20.28C167.667 19.288 166.419 18.792 164.851 18.792C163.283 18.792 162.035 19.288 161.107 20.28C160.179 21.272 159.715 22.664 159.715 24.456V39H151.507V12.216H159.715V15.768C160.547 14.584 161.667 13.656 163.075 12.984C164.483 12.28 166.067 11.928 167.827 11.928ZM187.979 9.432C186.539 9.432 185.355 9.016 184.427 8.184C183.531 7.32 183.083 6.264 183.083 5.016C183.083 3.736 183.531 2.68 184.427 1.848C185.355 0.983997 186.539 0.551997 187.979 0.551997C189.387 0.551997 190.539 0.983997 191.435 1.848C192.363 2.68 192.827 3.736 192.827 5.016C192.827 6.264 192.363 7.32 191.435 8.184C190.539 9.016 189.387 9.432 187.979 9.432ZM192.059 12.216V39H183.851V12.216H192.059ZM196.375 25.56C196.375 22.808 196.887 20.392 197.911 18.312C198.967 16.232 200.391 14.632 202.183 13.512C203.975 12.392 205.975 11.832 208.183 11.832C210.071 11.832 211.719 12.216 213.127 12.984C214.567 13.752 215.671 14.76 216.439 16.008V12.216H224.647V39H216.439V35.208C215.639 36.456 214.519 37.464 213.079 38.232C211.671 39 210.023 39.384 208.135 39.384C205.959 39.384 203.975 38.824 202.183 37.704C200.391 36.552 198.967 34.936 197.911 32.856C196.887 30.744 196.375 28.312 196.375 25.56ZM216.439 25.608C216.439 23.56 215.863 21.944 214.711 20.76C213.591 19.576 212.215 18.984 210.583 18.984C208.951 18.984 207.559 19.576 206.407 20.76C205.287 21.912 204.727 23.512 204.727 25.56C204.727 27.608 205.287 29.24 206.407 30.456C207.559 31.64 208.951 32.232 210.583 32.232C212.215 32.232 213.591 31.64 214.711 30.456C215.863 29.272 216.439 27.656 216.439 25.608Z" fill="#1E2431"/>
</svg>
